# xmcd
#
# Track frame offsets: 
#        150
#        11413
#        29980
#        42360
#        54235
#        65004
#        78607
#        93862
#        103613
#        118589
#        129212
#        149181
#        160197
#        173200
#
# Disc length: 2503 seconds
#
# Revision: 4
# Processed by: cddbd v1.5.2PL0 Copyright (c) Steve Scherf et al.
# Submitted via: ExactAudioCopy v1.3
#
DISCID=c009c50e
DTITLE=Aretha Franklin - I Never Loved A Man The Way I Love You
DYEAR=1967
DGENRE=Soul
TTITLE0=Respect
TTITLE1=Drown In My Own Tears
TTITLE2=I Never Loved A Man (The Way I Love You)
TTITLE3=Soul Serenade
TTITLE4=Don't Let Me Lose This Dream
TTITLE5=Baby, Baby, Baby
TTITLE6=Dr. Feelgood (Love Is A Serious Business)
TTITLE7=Good Times
TTITLE8=Do Right Woman - Do Right Man
TTITLE9=Save Me
TTITLE10=A Change Is Gonna Come
TTITLE11=Respect (mono version)
TTITLE12=I Never Loved A Man (The Way I Love You) (mono version)
TTITLE13=Do Right Woman - Do Right Man (mono version)
EXTD=
EXTT0=
EXTT1=
EXTT2=
EXTT3=
EXTT4=
EXTT5=
EXTT6=
EXTT7=
EXTT8=
EXTT9=
EXTT10=
EXTT11=
EXTT12=
EXTT13=
PLAYORDER=
